<mxfile host="app.diagrams.net" modified="2023-08-11T18:27:49.338Z" agent="Mozilla/5.0 (Windows NT 10.0; Win64; x64) AppleWebKit/537.36 (KHTML, like Gecko) Chrome/115.0.0.0 Safari/537.36" version="21.6.8" etag="jARKbm6zsQJ6C-j_B53u" type="github">
  <diagram name="PÃ¡gina-1" id="ZipFY7_jd9I5HUY0kSOT">
    <mxGraphModel>
      <root>
        <mxCell id="0" />
        <mxCell id="1" parent="0" />
      </root>
    </mxGraphModel>
  </diagram>
</mxfile>
